<?xml version="1.0" encoding="utf-8"?>
<!-- Generator: Adobe Illustrator 18.0.0, SVG Export Plug-In . SVG Version: 6.00 Build 0)  -->
<!DOCTYPE svg PUBLIC "-//W3C//DTD SVG 1.1//EN" "http://www.w3.org/Graphics/SVG/1.1/DTD/svg11.dtd">
<svg version="1.1" id="Capa_1" xmlns="http://www.w3.org/2000/svg" xmlns:xlink="http://www.w3.org/1999/xlink" x="0px" y="0px"
	 viewBox="0 0 32.8 52" enable-background="new 0 0 32.8 52" xml:space="preserve">
<path fill="#FFFFFF" d="M32.8,16.8c0-9.1-7.3-16.4-16.4-16.4C7.3,0.5,0,7.8,0,16.8c0,7.8,12.2,28.7,15.6,34.3
	c0.2,0.3,0.5,0.5,0.8,0.5s0.7-0.2,0.8-0.5C20.6,45.5,32.8,24.7,32.8,16.8z M16.4,29.5c-7,0-12.7-5.7-12.7-12.7S9.4,4.2,16.4,4.2
	s12.7,5.7,12.7,12.7C29.1,23.8,23.4,29.5,16.4,29.5z"/>
</svg>
